<svg width="50" height="70" viewBox="0 0 50 70" fill="none" xmlns="http://www.w3.org/2000/svg">
<path d="M49.7787 43.8168C49.7787 56.9164 38.643 70 25.658 70C12.673 70 0.351196 56.1149 0.351196 43.0153C0.351196 29.9156 10.5571 10.6061 25.658 0C39.6119 10.0275 49.7787 30.7171 49.7787 43.8168Z" fill="url(#paint0_linear_31_303)"/>
<path d="M43.5803 36.0405C48.3902 46.8153 44.0701 61.65 33.4306 66.3995C22.7912 71.149 7.59682 64.235 2.78689 53.4602C-2.02305 42.6854 -0.750755 23.0697 7.728 8.82251C22.8433 11.9666 38.7703 25.2657 43.5803 36.0405Z" fill="url(#paint1_linear_31_303)"/>
<path d="M42.5646 51.9379C42.5646 60.4377 34.909 67.3281 25.4653 67.3281C16.0217 67.3281 8.36609 60.4377 8.36609 51.9379C8.36609 43.4381 14.4829 28.7901 25.4653 21.9083C35.6137 28.4147 42.5646 43.4381 42.5646 51.9379Z" fill="#FFCF23"/>
<defs>
<linearGradient id="paint0_linear_31_303" x1="25.658" y1="0" x2="25.658" y2="70" gradientUnits="userSpaceOnUse">
<stop stop-color="#FF6723"/>
<stop offset="1" stop-color="#FFB423"/>
</linearGradient>
<linearGradient id="paint1_linear_31_303" x1="7.72798" y1="8.8225" x2="33.4306" y2="66.3995" gradientUnits="userSpaceOnUse">
<stop stop-color="#FF6723"/>
<stop offset="1" stop-color="#FFB423"/>
</linearGradient>
</defs>
</svg>
